{"accessors" : [{"bufferView" : 0, "byteOffset" : 0, "componentType" : 5123, "count" : 7290, "type" : "SCALAR", "max" : [7263], "min" : [0]}, {"bufferView" : 1, "byteOffset" : 0, "componentType" : 5126, "count" : 7264, "type" : "VEC3", "max" : [6.19225978851318, 8.68754768371582, 19.1878604888916], "min" : [-6.19356107711792, -5.28056812286377, -0.0291959997266531]}, {"bufferView" : 1, "byteOffset" : 12, "componentType" : 5126, "count" : 7264, "type" : "VEC2", "max" : [0.939999997615814, -0.095600001513958], "min" : [0.469599992036819, -0.596000015735626]}, {"bufferView" : 1, "byteOffset" : 20, "componentType" : 5126, "count" : 7264, "type" : "VEC3", "max" : [0.998733282089233, 0.999492466449738, 0.999845027923584], "min" : [-0.998429179191589, -0.999945163726807, -0.999958336353302]}], "asset" : {"generator" : "Aspose.3D 20.2.1", "version" : "2.0"}, "buffers" : [{"uri" : "buffer.bin", "byteLength" : 247036}], "bufferViews" : [{"buffer" : 0, "byteOffset" : 0, "byteLength" : 14580, "target" : 34963}, {"buffer" : 0, "byteOffset" : 14584, "byteLength" : 232448, "byteStride" : 32, "target" : 34962}], "meshes" : [{"primitives" : [{"attributes" : {"POSITION" : 1, "TEXCOORD_0" : 2, "NORMAL" : 3}, "indices" : 0, "mode" : 4}]}], "nodes" : [{"mesh" : 0, "name" : ""}], "scene" : 0, "scenes" : [{"nodes" : [0]}]}