{"accessors" : [{"bufferView" : 0, "byteOffset" : 0, "componentType" : 5123, "count" : 3000, "type" : "SCALAR", "max" : [2995], "min" : [0]}, {"bufferView" : 1, "byteOffset" : 0, "componentType" : 5126, "count" : 2996, "type" : "VEC3", "max" : [6.41754484176636, 9.00279808044434, 19.2400665283203], "min" : [-6.45207500457764, -5.31227588653564, -0.0630680024623871]}, {"bufferView" : 1, "byteOffset" : 12, "componentType" : 5126, "count" : 2996, "type" : "VEC2", "max" : [0.971700012683868, -0.0167999994009733], "min" : [0.425599992275238, -0.987200021743774]}, {"bufferView" : 1, "byteOffset" : 20, "componentType" : 5126, "count" : 2996, "type" : "VEC3", "max" : [0.998272240161896, 0.998943984508514, 0.998445451259613], "min" : [-0.998003542423248, -0.999027669429779, -0.99727988243103]}], "asset" : {"generator" : "Aspose.3D 20.2.1", "version" : "2.0"}, "buffers" : [{"uri" : "buffer.bin", "byteLength" : 101880}], "bufferViews" : [{"buffer" : 0, "byteOffset" : 0, "byteLength" : 6000, "target" : 34963}, {"buffer" : 0, "byteOffset" : 6004, "byteLength" : 95872, "byteStride" : 32, "target" : 34962}], "meshes" : [{"primitives" : [{"attributes" : {"POSITION" : 1, "TEXCOORD_0" : 2, "NORMAL" : 3}, "indices" : 0, "mode" : 4}]}], "nodes" : [{"mesh" : 0, "name" : ""}], "scene" : 0, "scenes" : [{"nodes" : [0]}]}