{"accessors" : [{"bufferView" : 0, "byteOffset" : 0, "componentType" : 5123, "count" : 32004, "type" : "SCALAR", "max" : [31339], "min" : [0]}, {"bufferView" : 1, "byteOffset" : 0, "componentType" : 5126, "count" : 31340, "type" : "VEC3", "max" : [6.46977090835571, 9.00850105285645, 19.1886863708496], "min" : [-6.46977090835571, -5.28299713134766, -0.0291959997266531]}, {"bufferView" : 1, "byteOffset" : 12, "componentType" : 5126, "count" : 31340, "type" : "VEC2", "max" : [0.972199976444244, -0.0153999999165535], "min" : [0.469599992036819, -0.987200021743774]}, {"bufferView" : 1, "byteOffset" : 20, "componentType" : 5126, "count" : 31340, "type" : "VEC3", "max" : [0.999829173088074, 0.999995887279511, 0.998302757740021], "min" : [-0.999679505825043, -0.999670684337616, -0.999900817871094]}], "asset" : {"generator" : "Aspose.3D 20.2.1", "version" : "2.0"}, "buffers" : [{"uri" : "buffer.bin", "byteLength" : 1066896}], "bufferViews" : [{"buffer" : 0, "byteOffset" : 0, "byteLength" : 64008, "target" : 34963}, {"buffer" : 0, "byteOffset" : 64012, "byteLength" : 1002880, "byteStride" : 32, "target" : 34962}], "meshes" : [{"primitives" : [{"attributes" : {"POSITION" : 1, "TEXCOORD_0" : 2, "NORMAL" : 3}, "indices" : 0, "mode" : 4}]}], "nodes" : [{"mesh" : 0, "name" : ""}], "scene" : 0, "scenes" : [{"nodes" : [0]}]}