{"accessors" : [{"bufferView" : 0, "byteOffset" : 0, "componentType" : 5123, "count" : 32004, "type" : "SCALAR", "max" : [31339], "min" : [0]}, {"bufferView" : 1, "byteOffset" : 0, "componentType" : 5126, "count" : 31340, "type" : "VEC3", "max" : [6.70430278778076, 9.25661373138428, 19.4417419433594], "min" : [-6.59086418151855, -5.48863077163696, -0.194482997059822]}, {"bufferView" : 1, "byteOffset" : 12, "componentType" : 5126, "count" : 31340, "type" : "VEC2", "max" : [0.972199976444244, -0.0153999999165535], "min" : [0.469599992036819, -0.987200021743774]}, {"bufferView" : 1, "byteOffset" : 20, "componentType" : 5126, "count" : 31340, "type" : "VEC3", "max" : [0.999561965465546, 0.999355494976044, 0.999291360378265], "min" : [-0.999804079532623, -1.00000429153442, -0.999991416931152]}], "asset" : {"generator" : "Aspose.3D 20.2.1", "version" : "2.0"}, "buffers" : [{"uri" : "buffer.bin", "byteLength" : 1066896}], "bufferViews" : [{"buffer" : 0, "byteOffset" : 0, "byteLength" : 64008, "target" : 34963}, {"buffer" : 0, "byteOffset" : 64012, "byteLength" : 1002880, "byteStride" : 32, "target" : 34962}], "meshes" : [{"primitives" : [{"attributes" : {"POSITION" : 1, "TEXCOORD_0" : 2, "NORMAL" : 3}, "indices" : 0, "mode" : 4}]}], "nodes" : [{"mesh" : 0, "name" : ""}], "scene" : 0, "scenes" : [{"nodes" : [0]}]}